<?xml version="1.0" standalone="no"?>
<!DOCTYPE svg PUBLIC "-//W3C//DTD SVG 20010904//EN"
 "xhttp://www.w3.org/TR/2001/REC-SVG-20010904/DTD/svg10.dtd">
<svg version="1.0" xmlns="http://www.w3.org/2000/svg"
 width="1000.000000pt" height="1000.000000pt" viewBox="0 0 1000.000000 1000.000000"
 preserveAspectRatio="xMidYMid meet">
<metadata>
Created by potrace 1.14, written by Peter Selinger 2001-2017
</metadata>
<g transform="translate(0.000000,1000.000000) scale(0.100000,-0.100000)"
fill="#000000" stroke="none">
<path d="M5007 7813 c-2 -5 -3 -16 -1 -26 2 -14 -2 -17 -14 -12 -9 3 -13 3 -9
-1 4 -4 1 -14 -6 -22 -10 -13 -9 -15 3 -8 9 4 8 1 -2 -7 -10 -8 -18 -19 -18
-26 0 -6 -8 -11 -17 -11 -15 0 -16 -2 -3 -10 13 -9 13 -10 0 -10 -13 0 -13 -1
0 -10 13 -8 12 -10 -3 -10 -10 0 -15 -4 -12 -10 3 -5 1 -10 -5 -10 -6 0 -9 -4
-6 -9 4 -5 2 -11 -3 -13 -5 -1 -11 -10 -13 -18 -2 -8 -11 -21 -20 -28 -9 -7
-15 -19 -12 -26 3 -7 -2 -20 -10 -29 -8 -8 -12 -17 -9 -21 4 -3 1 -6 -6 -6 -8
0 -11 -7 -7 -15 3 -9 0 -15 -9 -15 -9 0 -12 -6 -9 -15 4 -8 -1 -17 -10 -21 -9
-3 -14 -10 -11 -14 3 -5 -2 -16 -12 -25 -9 -10 -18 -26 -18 -37 -1 -11 -8 -24
-16 -29 -8 -5 -9 -9 -4 -9 6 0 2 -7 -9 -15 -11 -8 -15 -19 -10 -27 4 -7 4 -10
-1 -6 -9 8 -35 -36 -35 -58 0 -8 -7 -17 -15 -20 -8 -4 -15 -10 -15 -16 0 -5 6
-6 13 -3 6 4 3 -1 -7 -9 -11 -9 -16 -16 -12 -16 4 0 0 -7 -8 -16 -9 -8 -16
-22 -16 -30 0 -8 -4 -13 -8 -10 -4 2 -9 -4 -9 -15 -1 -11 -12 -29 -25 -39 -13
-11 -18 -19 -11 -20 6 0 14 6 16 13 4 9 6 9 6 -1 1 -7 -6 -15 -14 -18 -8 -4
-15 -13 -15 -20 0 -8 -7 -17 -15 -20 -13 -5 -13 -9 -3 -22 7 -9 8 -13 2 -9 -6
3 -16 -5 -23 -19 -6 -14 -16 -22 -22 -18 -7 4 -7 -2 1 -17 7 -13 9 -21 5 -17
-12 12 -45 -35 -33 -49 6 -8 3 -15 -11 -22 -11 -6 -21 -21 -23 -33 -2 -13 -9
-22 -15 -21 -8 2 -10 -4 -6 -14 4 -10 2 -14 -4 -10 -6 4 -10 -3 -9 -16 1 -13
-4 -21 -12 -19 -8 1 -11 -2 -8 -7 4 -5 -1 -16 -9 -24 -11 -12 -12 -17 -2 -20
7 -3 4 -6 -6 -6 -10 -1 -16 -5 -12 -10 3 -5 0 -13 -6 -16 -5 -4 -8 -13 -5 -21
3 -8 1 -14 -5 -14 -5 0 -14 -12 -19 -26 -6 -14 -14 -23 -19 -20 -4 3 -8 -2 -8
-12 0 -33 -3 -43 -11 -38 -5 3 -15 -10 -24 -29 -9 -21 -11 -32 -4 -29 6 3 3
-1 -6 -9 -10 -8 -15 -17 -11 -20 3 -4 1 -7 -6 -7 -7 0 -9 -4 -6 -10 3 -5 1
-10 -5 -10 -6 0 -8 -4 -5 -10 3 -5 2 -10 -4 -10 -6 0 -16 -10 -22 -22 -10 -20
-10 -22 2 -13 9 6 8 3 -1 -5 -9 -9 -15 -21 -12 -28 2 -6 -2 -12 -8 -12 -7 0
-10 -7 -6 -15 3 -8 2 -14 -2 -12 -4 1 -8 -2 -9 -7 0 -5 -8 -13 -17 -18 -8 -5
-13 -15 -10 -23 4 -8 1 -15 -7 -15 -7 0 -9 -3 -6 -7 4 -3 -1 -12 -11 -20 -10
-9 -11 -11 -2 -7 12 7 13 5 3 -8 -7 -8 -9 -19 -5 -23 4 -5 1 -5 -5 -1 -7 4
-13 4 -14 -1 -2 -28 -9 -45 -23 -59 -9 -8 -16 -21 -16 -29 0 -7 -4 -15 -9 -17
-5 -1 -11 -10 -13 -18 -2 -8 -7 -18 -12 -22 -10 -7 -16 -47 -7 -46 19 2 24 -4
11 -12 -10 -6 -11 -10 -2 -10 6 0 12 -7 12 -15 0 -8 5 -15 11 -15 5 0 7 -4 4
-10 -3 -5 -1 -10 5 -10 6 0 8 -4 5 -10 -3 -5 -1 -10 4 -10 6 0 11 -7 11 -15 0
-8 5 -15 10 -15 6 0 10 -7 10 -15 0 -8 5 -15 11 -15 6 0 8 -8 4 -19 -4 -13 2
-23 19 -35 16 -10 23 -22 20 -31 -6 -14 7 -20 30 -16 5 1 3 -5 -4 -14 -11 -13
-10 -15 4 -9 9 3 16 13 16 21 0 8 4 11 10 8 6 -3 7 1 4 9 -3 9 -2 16 4 16 5 0
13 7 16 16 6 15 4 15 -11 3 -14 -11 -13 -9 2 13 11 15 23 28 27 28 4 0 5 9 3
20 -2 11 -1 19 3 16 9 -5 32 20 25 28 -4 3 -1 6 5 6 7 0 12 5 12 11 0 5 -6 7
-12 4 -7 -4 -5 0 4 8 10 8 15 17 11 20 -3 4 -1 7 6 7 7 0 10 4 6 9 -3 5 0 13
6 16 5 4 8 13 5 21 -3 8 0 13 7 11 7 -1 11 4 9 11 -1 6 3 12 9 12 5 0 7 5 4
10 -3 6 -1 10 5 10 7 0 10 7 6 15 -3 9 0 15 10 15 8 0 13 4 9 9 -3 5 0 13 6
16 5 4 8 14 5 22 -3 8 -1 11 4 8 6 -3 10 -1 10 6 0 7 8 21 18 32 10 12 11 17
3 12 -10 -5 -12 -4 -7 3 4 7 13 12 19 12 7 0 14 12 15 28 1 15 9 32 17 38 8 6
12 14 8 17 -3 4 -1 7 6 7 8 0 11 6 7 16 -4 10 -2 13 6 8 7 -5 9 0 6 14 -4 16
-2 19 10 15 10 -4 13 -2 8 5 -4 6 2 20 14 32 11 11 16 20 10 20 -5 0 0 12 13
26 12 14 22 29 23 32 4 32 19 62 29 59 8 -4 10 2 8 17 -3 13 5 33 21 51 15 17
24 35 22 41 -2 6 5 16 16 23 14 9 17 16 9 24 -7 9 -4 16 10 25 11 7 17 17 14
22 -3 6 -1 10 4 10 6 0 10 3 10 8 -3 19 2 33 10 27 5 -3 12 -1 16 5 3 5 1 10
-5 10 -6 0 -8 5 -5 10 4 6 11 7 17 4 7 -5 8 -2 4 5 -5 7 0 19 10 27 11 9 13
13 7 9 -19 -9 -16 6 5 22 11 9 12 12 2 8 -8 -4 -4 2 9 13 18 15 21 21 10 25
-10 4 -9 6 4 6 10 1 16 5 12 11 -3 5 3 18 15 30 11 11 20 32 20 46 0 17 4 23
12 18 8 -5 9 -2 5 9 -4 10 -2 17 4 17 6 0 9 8 6 19 -3 15 0 17 17 13 21 -4 21
-4 1 12 -19 15 -19 16 -1 9 12 -4 17 -3 13 4 -4 6 0 14 9 17 9 4 14 13 10 21
-3 9 1 18 8 21 8 3 12 14 9 27 -4 18 -3 19 6 7 9 -13 11 -11 11 7 0 12 5 23
11 25 6 2 12 15 12 30 1 16 7 24 15 20 8 -2 16 5 19 17 l5 21 19 -21 c10 -11
15 -28 12 -36 -4 -11 -2 -14 5 -9 7 4 12 1 12 -7 0 -8 7 -17 15 -21 8 -3 12
-12 9 -21 -3 -8 -1 -15 6 -15 6 0 8 -4 5 -10 -3 -5 -1 -10 5 -10 6 0 8 -4 5
-10 -3 -5 -1 -10 4 -10 6 0 10 -6 9 -12 -2 -7 3 -12 10 -10 9 2 11 -4 7 -18
-4 -13 -1 -22 9 -26 9 -3 16 -15 16 -25 0 -10 9 -28 20 -39 11 -11 15 -20 8
-20 -6 0 -1 -8 10 -19 12 -10 19 -21 15 -25 -3 -3 -1 -6 6 -6 7 0 9 -4 6 -10
-3 -5 -1 -10 5 -10 6 0 8 -4 5 -10 -3 -5 -1 -10 6 -10 7 0 9 -3 6 -7 -4 -3 1
-12 11 -20 9 -8 11 -11 3 -7 -16 8 -8 -9 17 -38 8 -10 12 -18 8 -18 -4 0 0 -7
8 -16 9 -8 14 -20 11 -25 -4 -5 -1 -9 4 -9 6 0 11 -7 11 -16 0 -9 5 -12 12 -8
8 5 9 2 5 -9 -3 -9 -1 -22 6 -29 24 -26 42 -52 30 -45 -8 5 -8 1 0 -17 7 -13
15 -22 19 -20 5 3 8 -4 8 -15 0 -12 5 -21 11 -21 5 0 8 -4 4 -9 -3 -6 3 -14
12 -20 11 -6 13 -11 5 -11 -10 0 -10 -3 0 -14 7 -8 16 -12 21 -9 11 7 4 -21
-8 -29 -6 -4 -2 -8 8 -8 10 0 15 -4 12 -10 -3 -5 1 -10 9 -10 10 0 13 -6 10
-15 -4 -8 -1 -15 5 -15 6 0 11 -9 11 -21 0 -13 4 -18 13 -13 7 5 6 0 -3 -11
-8 -10 -10 -16 -4 -12 13 7 46 -51 38 -65 -3 -5 -2 -8 3 -7 20 3 27 -2 13 -11
-13 -8 -12 -10 3 -10 10 0 17 -8 17 -21 0 -13 4 -18 13 -13 7 5 6 0 -3 -11 -9
-11 -10 -16 -2 -11 8 5 12 0 12 -14 0 -12 4 -19 9 -16 5 3 11 -1 14 -8 3 -8 1
-17 -6 -20 -7 -2 -4 -5 6 -5 10 -1 16 -5 12 -10 -3 -5 2 -16 10 -24 8 -9 15
-23 15 -31 0 -9 5 -16 10 -16 6 0 10 -8 10 -18 0 -11 9 -29 20 -42 11 -13 20
-29 20 -37 0 -8 4 -12 8 -9 4 2 9 -7 10 -22 1 -15 12 -35 25 -45 12 -10 16
-16 10 -12 -7 3 -13 1 -13 -4 0 -6 5 -11 11 -11 5 0 7 -4 4 -10 -3 -5 1 -10 9
-10 9 0 16 -5 16 -11 0 -5 -6 -7 -12 -4 -7 4 -2 -3 11 -14 13 -12 18 -21 11
-21 -8 0 -7 -5 3 -14 8 -8 20 -28 27 -45 13 -32 33 -40 46 -19 4 7 3 8 -4 4
-8 -5 -10 -2 -6 8 3 9 10 13 15 10 5 -3 9 2 9 11 0 9 6 23 14 31 8 8 13 24 11
35 -3 12 -2 19 1 16 3 -3 14 2 24 11 14 11 16 19 9 28 -7 8 -6 15 2 20 8 5 9
3 4 -6 -5 -9 -4 -11 3 -6 7 4 12 14 12 22 0 8 6 14 13 14 8 0 7 4 -3 10 -13 8
-13 10 1 10 10 0 16 7 15 18 0 9 4 16 9 15 7 -1 9 12 7 33 -2 18 -8 31 -14 28
-5 -3 -8 0 -7 7 2 8 -7 33 -19 55 -11 23 -18 45 -14 49 4 5 -2 5 -12 1 -17 -6
-17 -5 -5 11 9 11 10 14 2 9 -8 -4 -13 -2 -13 8 0 8 -6 17 -12 19 -10 4 -10 6
1 6 8 1 5 9 -10 22 -13 11 -17 17 -10 13 9 -5 6 5 -7 23 -12 17 -22 36 -22 43
0 6 -5 8 -12 4 -10 -6 -10 -4 0 8 11 14 10 17 -8 23 -11 3 -18 11 -14 16 3 5
-4 21 -15 35 -11 15 -18 30 -15 35 3 5 0 9 -7 9 -7 0 -9 3 -6 7 4 3 -2 13 -13
20 -11 8 -18 18 -15 23 5 8 -11 46 -25 60 -16 16 -30 52 -24 62 5 7 2 8 -6 3
-10 -6 -12 -4 -7 9 4 10 3 15 -3 11 -6 -3 -10 1 -10 9 0 9 -5 16 -12 16 -6 0
-9 3 -5 6 3 4 -1 13 -9 21 -8 8 -12 19 -9 24 4 5 2 9 -4 9 -6 0 -14 12 -17 27
-4 15 -13 34 -21 41 -7 8 -11 18 -8 23 4 5 -1 9 -10 9 -9 0 -13 4 -10 10 3 5
-1 21 -10 34 -9 14 -14 30 -10 36 4 6 1 9 -6 8 -6 -2 -21 13 -32 32 -17 28
-18 32 -4 21 26 -20 20 -5 -8 23 -14 14 -25 30 -25 36 0 5 -4 10 -10 10 -12 0
-9 22 5 33 6 5 4 7 -5 5 -9 -2 -17 2 -19 7 -1 6 -10 19 -19 29 -10 11 -11 16
-4 12 11 -7 12 -4 3 13 -7 11 -16 21 -21 21 -6 0 -10 7 -10 16 0 8 -4 13 -8
10 -4 -2 -8 3 -9 12 -3 44 -8 60 -15 56 -5 -3 -5 -11 -2 -17 4 -7 3 -8 -2 -4
-5 5 -9 12 -9 15 0 4 -4 13 -9 21 -6 10 -5 12 2 7 7 -4 12 -2 12 3 0 6 -7 11
-16 11 -10 0 -14 6 -10 15 3 8 1 15 -4 15 -6 0 -10 7 -10 15 0 8 -5 15 -11 15
-6 0 -9 7 -6 15 4 8 -4 22 -19 34 -16 13 -20 21 -12 24 10 4 10 6 1 6 -7 1
-13 6 -13 12 0 7 -8 18 -17 26 -10 8 -12 11 -5 8 8 -4 2 11 -12 34 -14 22 -26
45 -26 51 0 5 -4 10 -10 10 -5 0 -10 7 -10 15 0 8 -4 15 -9 15 -5 0 -12 7 -15
16 -6 15 -4 15 11 3 10 -7 2 5 -18 26 -25 27 -36 47 -33 62 2 15 -1 22 -9 20
-6 -1 -11 4 -9 11 1 6 -3 12 -10 12 -6 0 -8 3 -5 7 4 3 -1 12 -11 20 -9 8 -11
12 -4 8 6 -3 12 -2 12 4 0 5 -9 13 -20 16 -12 4 -20 15 -20 29 0 12 -5 27 -12
34 -7 7 -8 12 -2 12 5 1 -4 8 -21 16 -16 8 -22 12 -12 9 10 -3 15 -1 12 5 -7
12 -22 13 -28 3z m-882 -2093 c3 -5 1 -10 -4 -10 -6 0 -11 5 -11 10 0 6 2 10
4 10 3 0 8 -4 11 -10z"/>
<path d="M5003 6709 c5 -17 3 -18 -11 -7 -13 10 -14 10 -8 0 4 -7 2 -20 -5
-28 -6 -8 -9 -17 -6 -21 11 -10 -14 -34 -27 -26 -6 4 -5 -1 3 -11 8 -9 10 -16
4 -14 -6 2 -12 -1 -13 -7 -2 -5 -11 -16 -21 -23 -16 -11 -17 -17 -8 -34 8 -15
8 -19 0 -14 -6 4 -14 -1 -18 -11 -4 -10 -10 -21 -15 -24 -5 -3 -10 -16 -11
-27 -1 -12 -7 -22 -14 -22 -11 0 -11 -5 -3 -20 8 -16 8 -18 -4 -14 -8 3 -17 1
-21 -5 -3 -6 -1 -11 5 -11 6 0 -1 -11 -15 -25 -27 -28 -34 -43 -12 -29 7 5 5
2 -5 -7 -9 -9 -15 -19 -12 -22 4 -3 0 -15 -8 -26 -8 -12 -17 -18 -21 -15 -3 3
-4 -2 -3 -12 3 -19 -14 -45 -26 -38 -3 2 -5 -4 -4 -13 2 -10 -5 -26 -16 -37
-10 -11 -18 -28 -18 -38 0 -10 -5 -18 -11 -18 -5 0 -8 -4 -5 -9 4 -5 1 -11 -6
-13 -6 -2 -13 -14 -15 -26 -1 -13 -12 -33 -23 -45 -11 -12 -19 -26 -16 -32 2
-6 -5 -17 -15 -23 -10 -7 -19 -21 -19 -33 0 -13 -4 -18 -12 -13 -7 4 -8 3 -4
-5 4 -6 -3 -25 -15 -43 -13 -18 -17 -28 -8 -24 7 4 3 -2 -11 -14 -14 -12 -19
-19 -13 -15 9 4 11 1 7 -9 -3 -9 -10 -14 -14 -11 -4 3 -11 -2 -14 -11 -4 -10
-2 -13 7 -8 6 4 1 -4 -12 -16 -17 -17 -21 -25 -11 -28 8 -3 5 -9 -11 -18 -13
-7 -18 -13 -10 -14 10 0 8 -5 -6 -17 -11 -10 -18 -25 -15 -33 3 -8 1 -12 -3
-8 -8 8 -45 -57 -45 -80 0 -7 -5 -10 -12 -6 -8 5 -9 2 -5 -9 3 -10 2 -17 -3
-17 -6 0 -10 -7 -10 -16 0 -9 -5 -12 -12 -8 -8 5 -7 0 2 -11 9 -11 10 -16 3
-11 -12 6 -15 0 -12 -21 0 -3 -7 -11 -16 -16 -13 -7 -14 -11 -5 -17 9 -6 7
-10 -8 -14 -13 -4 -19 -13 -15 -22 3 -7 0 -14 -7 -14 -6 0 -8 -4 -5 -10 3 -5
1 -10 -5 -10 -6 0 -8 -5 -5 -10 3 -6 0 -13 -9 -16 -9 -3 -12 -12 -9 -21 5 -12
3 -14 -7 -8 -8 5 -11 4 -7 -3 10 -14 -3 -43 -15 -36 -6 4 -7 -2 -3 -16 5 -15
4 -20 -4 -16 -7 4 -11 -1 -11 -13 0 -11 -5 -23 -12 -27 -7 -5 -8 -3 -3 7 8 12
6 12 -8 0 -15 -12 -17 -11 -17 7 0 11 -7 25 -15 32 -8 7 -12 16 -9 21 3 5 0 9
-5 9 -6 0 -11 7 -11 15 0 9 -6 18 -14 21 -9 3 -12 12 -9 21 4 11 2 14 -5 9
-11 -6 -17 5 -13 27 0 4 -4 7 -10 7 -5 0 -7 5 -4 10 3 6 -2 10 -12 11 -10 0
-13 3 -6 6 9 3 7 11 -7 26 -11 11 -20 29 -20 40 0 10 -10 28 -22 39 -13 11
-16 17 -8 13 9 -4 7 0 -4 9 -10 8 -15 19 -12 25 4 5 1 13 -5 17 -8 5 -9 3 -4
-6 5 -8 4 -11 -3 -6 -6 4 -9 13 -5 21 3 8 0 15 -6 15 -6 0 -11 7 -11 16 0 9
-5 12 -12 8 -6 -4 -9 -3 -5 2 7 12 -27 86 -36 77 -4 -3 -7 6 -7 21 0 21 -4 27
-14 23 -10 -4 -13 -1 -9 9 3 7 0 14 -6 14 -6 0 -8 7 -5 15 4 8 1 15 -6 15 -6
0 -8 5 -5 10 3 6 -1 10 -10 10 -9 0 -13 4 -10 10 3 5 -1 20 -10 33 -8 13 -12
27 -8 30 3 4 -1 7 -9 7 -12 0 -15 7 -11 23 4 18 3 19 -7 7 -10 -12 -11 -11 -7
8 3 12 2 20 -3 17 -4 -3 -14 3 -21 12 -12 14 -12 16 1 9 8 -4 4 2 -10 13 -16
14 -19 19 -7 15 24 -9 21 -1 -9 25 l-27 23 6 -22 c4 -17 3 -20 -5 -12 -9 9
-18 -4 -38 -48 -15 -33 -30 -57 -33 -53 -4 3 -7 -3 -7 -15 0 -12 -5 -22 -11
-22 -6 0 -8 -7 -5 -16 3 -8 2 -12 -4 -9 -6 3 -10 -1 -10 -10 0 -9 -5 -13 -10
-10 -6 4 -10 3 -9 -2 4 -20 -2 -41 -17 -59 -8 -10 -12 -13 -8 -5 5 10 3 12 -5
7 -9 -6 -9 -11 -1 -21 8 -9 7 -14 -4 -18 -17 -7 -50 -66 -42 -74 3 -3 -2 -12
-10 -20 -8 -8 -12 -19 -9 -24 4 -5 -1 -6 -9 -3 -10 4 -14 0 -12 -12 2 -10 -7
-27 -18 -37 -12 -10 -16 -16 -10 -13 6 3 11 -1 11 -9 0 -8 -4 -12 -9 -9 -4 3
-8 0 -8 -6 0 -6 -4 -9 -8 -6 -5 3 -9 -1 -9 -9 0 -8 5 -11 10 -8 5 3 -1 -8 -14
-26 -12 -17 -27 -31 -32 -31 -5 0 -4 -7 3 -15 11 -13 10 -14 -6 -8 -17 6 -17
5 -5 -10 12 -15 12 -17 -3 -11 -12 4 -15 2 -10 -9 3 -8 0 -18 -5 -22 -6 -3 -9
-11 -6 -16 3 -5 -1 -6 -10 -3 -9 4 -15 3 -14 -2 4 -21 -2 -45 -9 -40 -8 5 -10
-1 -14 -43 -2 -11 -8 -17 -16 -14 -7 3 -12 2 -11 -3 5 -17 -24 -63 -35 -57 -6
4 -5 -1 3 -10 12 -15 11 -17 -3 -17 -10 0 -15 -4 -11 -9 3 -5 -1 -16 -9 -24
-8 -8 -12 -17 -9 -21 4 -3 1 -6 -6 -6 -7 0 -9 -5 -6 -10 3 -6 -1 -13 -9 -16
-9 -3 -16 -17 -16 -31 0 -13 -4 -21 -10 -18 -5 3 -10 -1 -10 -10 0 -9 -4 -13
-10 -10 -5 3 -7 0 -4 -8 3 -8 1 -18 -5 -22 -6 -3 -11 -15 -11 -27 0 -13 -5
-18 -13 -15 -9 3 -13 -3 -13 -17 1 -13 -4 -20 -13 -18 -12 3 -12 1 0 -14 9
-12 9 -15 2 -10 -7 4 -14 2 -14 -3 -1 -6 -3 -15 -4 -21 -1 -5 -3 -15 -4 -21 0
-5 -6 -7 -12 -3 -7 4 -10 1 -7 -7 3 -8 -2 -20 -11 -27 -12 -10 -12 -11 -1 -6
8 5 5 -4 -8 -20 -12 -16 -19 -32 -16 -37 3 -5 1 -9 -3 -9 -5 0 -17 -18 -27
-40 -10 -22 -22 -40 -27 -40 -5 0 -8 -3 -8 -7 3 -20 -2 -34 -11 -28 -6 3 -7
-1 -4 -9 3 -9 1 -16 -4 -16 -6 0 -9 -9 -7 -20 2 -11 -1 -19 -8 -17 -6 1 -12
-4 -13 -10 -1 -7 -2 -17 -3 -23 0 -5 -9 -10 -18 -11 -10 0 -13 -3 -6 -6 10 -3
10 -9 0 -26 -7 -12 -16 -25 -22 -29 -6 -5 -6 -8 -1 -8 6 0 1 -7 -10 -16 -10
-8 -13 -13 -7 -9 9 4 11 1 7 -9 -3 -9 -11 -13 -17 -9 -6 4 -7 1 -3 -6 5 -7 0
-19 -10 -27 -11 -9 -12 -12 -4 -8 8 4 4 -5 -10 -21 -14 -16 -20 -25 -14 -22 6
3 11 0 11 -7 0 -8 -7 -12 -15 -8 -10 3 -13 1 -8 -6 4 -7 3 -12 -3 -12 -6 0 -8
-7 -4 -16 3 -8 -3 -25 -14 -37 -10 -12 -25 -31 -33 -41 -13 -18 -13 -19 0 -12
11 6 11 4 -1 -6 -9 -7 -15 -21 -13 -30 1 -11 -3 -15 -12 -11 -10 3 -12 0 -9
-10 4 -8 -1 -21 -9 -30 -8 -8 -12 -17 -9 -21 4 -3 1 -6 -5 -6 -7 0 -12 -11
-12 -25 0 -14 -5 -25 -11 -25 -6 0 -9 -7 -6 -14 4 -11 1 -13 -10 -9 -13 5 -14
3 -4 -15 8 -15 8 -23 -1 -28 -7 -4 -8 -3 -4 4 4 7 1 12 -6 12 -7 0 -14 -11
-14 -24 -2 -29 20 -25 37 5 5 11 14 17 19 14 6 -3 7 1 4 9 -3 9 3 19 16 26 12
7 19 18 16 26 -3 7 -2 13 2 12 4 -2 22 12 40 30 18 17 29 32 25 32 -4 0 0 5
10 11 9 6 14 15 11 21 -4 6 -3 8 3 5 6 -4 17 1 24 10 12 14 12 16 -1 8 -8 -4
-6 1 5 12 11 11 24 18 29 15 5 -3 6 0 2 6 -3 6 6 20 20 31 15 12 23 21 18 21
-5 0 2 7 14 16 12 8 19 20 16 26 -4 6 -3 9 2 6 11 -7 35 17 27 26 -3 3 2 8 11
12 9 3 16 13 16 21 0 8 5 11 12 7 8 -5 9 -2 4 12 -4 10 -4 16 -1 12 8 -8 49
31 58 55 3 9 11 17 17 17 5 0 10 7 10 16 0 8 5 12 10 9 6 -3 14 5 19 18 5 13
17 27 25 30 9 4 16 13 16 21 0 8 5 18 12 22 7 5 8 2 3 -7 -5 -8 -4 -11 1 -6 5
5 10 13 10 18 1 5 2 14 3 20 0 5 6 7 11 4 6 -3 10 4 10 16 0 17 3 19 14 10 12
-10 14 -9 12 6 -3 20 16 43 36 43 10 0 10 2 -1 9 -11 7 -9 10 8 16 12 3 20 9
17 13 -2 4 6 16 17 27 11 11 16 14 12 6 -5 -9 -4 -12 3 -7 6 3 9 15 7 26 -3
14 1 17 12 13 13 -5 15 -2 10 11 -4 9 -3 15 2 12 5 -3 17 6 26 20 11 18 13 24
4 19 -8 -4 -4 2 9 15 13 12 21 29 18 37 -3 8 -1 11 4 8 9 -6 14 8 11 28 -1 5
3 6 9 2 5 -3 10 -1 10 6 0 6 8 18 18 26 11 10 12 12 2 8 -13 -6 -13 -5 0 7 8
7 15 20 15 28 0 8 6 14 13 12 7 -1 12 5 10 15 -2 11 2 17 10 15 8 -1 11 2 8 7
-6 9 19 65 40 88 7 6 15 9 20 5 5 -4 3 0 -4 9 -10 14 -10 18 3 23 8 3 15 13
15 21 0 10 5 13 12 9 6 -4 8 -3 5 4 -9 14 3 43 14 36 5 -3 9 6 9 21 0 14 7 28
16 32 9 3 14 13 11 24 -3 10 0 17 7 16 6 -1 10 4 8 11 -1 6 3 12 9 12 5 0 8 4
5 9 -3 5 1 14 9 21 8 7 15 18 15 25 0 7 7 15 15 19 8 3 15 12 15 19 0 8 7 14
15 14 8 0 12 -4 9 -9 -3 -4 0 -8 7 -8 7 0 10 -3 6 -6 -3 -3 3 -15 14 -27 10
-11 19 -29 19 -39 0 -10 5 -18 11 -18 6 0 9 -7 5 -15 -3 -9 0 -15 10 -15 8 0
12 -4 9 -10 -3 -5 0 -10 8 -10 11 0 13 -7 9 -22 -3 -14 -1 -19 6 -14 8 4 10 2
6 -7 -3 -8 0 -18 5 -22 6 -3 9 -11 6 -16 -3 -5 1 -6 9 -3 10 4 14 0 12 -13 -2
-10 6 -24 16 -32 13 -9 18 -21 15 -37 -2 -13 -1 -21 3 -19 4 3 14 -3 21 -12
12 -14 12 -16 -1 -9 -8 4 -7 1 3 -7 10 -8 16 -21 15 -28 -2 -8 2 -13 8 -12 7
1 11 -5 10 -15 0 -9 5 -16 12 -14 10 2 10 -2 2 -18 -9 -16 -8 -18 5 -14 8 4
15 1 15 -5 0 -6 -6 -11 -12 -12 -7 0 -2 -5 11 -10 14 -5 21 -15 18 -23 -3 -8
1 -17 9 -20 9 -3 14 -11 12 -18 -2 -6 4 -20 15 -31 10 -10 16 -25 13 -33 -3
-9 -1 -12 4 -9 6 3 10 -3 10 -14 0 -12 4 -21 9 -21 5 0 11 -9 14 -21 4 -13 10
-18 18 -13 8 4 10 3 5 -4 -4 -7 -3 -12 1 -12 5 0 10 -10 10 -22 1 -13 9 -28
17 -34 9 -6 12 -14 8 -18 -4 -4 1 -12 11 -17 9 -6 15 -14 12 -20 -3 -5 1 -6 9
-3 8 3 17 13 20 21 6 14 4 14 -11 2 -16 -13 -17 -12 -4 4 7 9 21 17 30 17 14
0 14 2 1 10 -10 6 -11 10 -2 10 6 0 12 7 12 16 0 8 4 12 10 9 5 -3 7 0 4 8 -3
8 2 17 10 20 9 4 12 14 9 27 -4 14 -1 20 8 18 9 -2 14 5 13 19 0 12 2 20 5 19
6 -4 38 26 34 31 -8 8 -2 33 6 29 5 -3 12 1 15 10 4 10 2 13 -7 9 -6 -4 -4 0
5 8 10 8 15 17 11 20 -3 4 -1 7 6 7 7 0 9 5 6 10 -3 6 -1 10 5 10 7 0 9 7 6
16 -5 14 -4 15 9 4 13 -11 14 -10 9 4 -4 9 0 24 8 34 25 29 33 46 17 38 -8 -4
-6 -1 3 7 10 8 15 17 11 20 -3 4 -1 7 6 7 7 0 9 5 5 12 -5 8 -2 9 9 5 10 -3
17 -2 17 2 0 5 -6 11 -12 14 -9 3 -6 11 10 26 12 12 19 27 16 33 -4 7 -2 8 4
4 11 -6 16 6 13 27 0 4 6 7 14 7 9 0 12 6 9 15 -4 8 -1 15 5 15 6 0 10 3 10 8
-3 20 2 32 13 26 7 -4 8 -3 4 5 -4 6 0 18 8 27 9 9 14 20 11 25 -4 5 -1 9 5 9
6 0 9 4 6 9 -3 5 1 12 10 15 9 4 14 13 10 21 -3 8 -1 15 4 15 5 0 12 10 16 22
4 13 13 28 21 34 8 5 16 22 16 37 1 15 8 29 15 32 7 3 10 9 7 15 -3 5 2 10 12
11 10 0 13 3 6 6 -10 3 -9 8 3 20 8 9 13 22 9 30 -4 11 -1 13 11 9 11 -4 15
-2 11 8 -7 17 37 78 49 68 4 -4 2 2 -6 12 -13 17 -13 18 -1 11 11 -6 13 -4 8
8 -3 10 -3 17 2 17 5 0 14 13 21 30 7 16 17 27 23 23 5 -3 7 -1 4 5 -10 15 3
43 16 35 6 -4 8 0 4 10 -4 10 -1 17 5 17 6 0 8 3 5 6 -9 9 12 46 22 40 4 -3 8
0 9 7 3 33 11 52 22 49 6 -1 9 2 5 8 -3 6 1 17 9 26 9 8 16 24 16 34 0 10 7
21 16 24 8 3 13 10 10 15 -8 13 4 42 15 35 5 -3 6 2 3 10 -4 9 1 18 10 22 9 3
13 10 10 15 -3 5 0 9 5 9 6 0 11 -5 11 -11 0 -5 4 -8 9 -5 10 7 25 -22 22 -41
-1 -7 4 -13 10 -13 7 0 10 -3 6 -6 -3 -3 3 -16 14 -27 11 -12 17 -27 15 -34
-3 -7 -1 -13 5 -13 6 0 7 -4 4 -10 -3 -5 -1 -10 4 -10 6 0 11 -8 11 -18 0 -10
9 -24 19 -32 11 -7 18 -17 15 -21 -2 -4 0 -10 6 -14 6 -4 8 -11 5 -16 -4 -5
-1 -9 4 -9 6 0 11 -7 11 -15 0 -8 5 -15 11 -15 5 0 7 -5 4 -10 -3 -6 1 -13 10
-16 12 -5 13 -9 4 -20 -11 -14 -1 -20 26 -14 6 1 4 -4 -2 -11 -18 -18 -16 -26
7 -32 13 -3 18 -10 14 -21 -3 -9 -1 -16 6 -16 6 0 8 -4 5 -10 -3 -5 -2 -10 4
-10 10 0 27 -38 23 -52 -1 -5 3 -8 9 -8 6 0 8 -7 5 -16 -3 -8 -2 -12 4 -9 6 3
10 -3 10 -14 0 -12 6 -21 14 -21 10 0 13 -7 11 -20 -2 -11 0 -18 6 -15 5 4 9
-3 9 -15 0 -13 4 -19 12 -14 8 5 9 0 6 -14 -4 -15 -2 -22 9 -22 8 0 11 -4 8
-10 -3 -5 -1 -10 6 -10 7 0 9 -3 6 -7 -4 -3 1 -12 11 -20 9 -8 11 -11 4 -8
-10 5 -9 -1 2 -24 9 -17 19 -31 22 -31 3 0 2 5 -2 12 -4 6 -3 8 4 4 6 -3 9
-16 7 -27 -2 -11 2 -22 11 -26 11 -4 12 -8 3 -20 -7 -8 -8 -13 -3 -12 5 1 15
1 23 0 11 -1 11 -4 0 -18 -12 -15 -12 -16 4 -10 13 5 17 3 15 -5 -3 -7 1 -19
8 -26 7 -7 10 -20 7 -29 -4 -11 -3 -14 5 -9 7 4 12 1 12 -8 0 -9 5 -16 11 -16
5 0 8 -4 4 -9 -3 -5 2 -17 11 -25 9 -9 13 -23 10 -31 -3 -9 1 -15 10 -15 10 0
14 -6 10 -15 -3 -8 0 -14 6 -12 7 1 12 -9 13 -21 0 -13 10 -32 23 -42 15 -13
18 -20 10 -23 -10 -4 -10 -6 0 -6 6 -1 12 -8 12 -16 0 -8 5 -15 10 -15 6 0 10
-7 10 -15 0 -8 6 -15 13 -15 8 0 7 -4 -3 -10 -13 -8 -12 -10 4 -10 11 0 16 -5
13 -14 -3 -8 1 -17 10 -20 9 -4 13 -13 9 -22 -3 -8 -2 -12 4 -9 9 5 15 -16 11
-38 -1 -5 3 -6 8 -3 11 7 23 -22 14 -36 -3 -6 -1 -8 4 -5 14 9 34 -15 36 -42
1 -12 5 -21 10 -21 5 0 7 -7 4 -14 -4 -11 -1 -13 10 -9 10 4 14 2 9 -5 -3 -6
-2 -13 4 -17 6 -4 8 -11 5 -16 -10 -14 9 -11 31 7 10 8 12 12 4 8 -10 -5 -8 1
5 16 11 13 14 20 8 16 -9 -5 -11 -2 -7 8 3 9 10 13 15 10 5 -3 9 2 9 10 0 9 4
16 9 16 6 0 8 9 6 21 -3 15 0 19 11 15 9 -3 12 -1 9 4 -3 6 0 10 7 10 9 0 9 3
-2 10 -14 9 -7 14 13 11 5 -1 6 3 3 8 -4 5 1 17 10 25 11 12 12 16 2 16 -8 1
-4 8 10 19 24 21 30 36 10 26 -7 -4 -4 1 6 9 11 9 16 16 11 16 -5 0 0 6 11 14
10 8 19 20 20 28 2 26 16 58 26 58 5 0 6 5 2 12 -5 7 -2 9 8 6 8 -4 15 0 15 8
0 7 -5 10 -11 7 -6 -3 -1 4 12 16 18 18 21 26 11 37 -10 12 -9 13 7 8 10 -4
16 -4 12 1 -4 4 0 14 10 22 11 10 12 12 2 8 -10 -4 -9 -2 2 8 10 8 15 17 11
20 -3 4 -1 7 5 7 7 0 12 5 12 11 0 5 -6 7 -12 4 -7 -4 -2 3 11 14 13 12 21 27
18 36 -4 8 -1 17 5 21 7 5 8 2 4 -7 -4 -8 -1 -5 8 5 8 10 13 23 10 27 -3 5 -1
9 5 9 6 0 15 10 22 21 9 17 8 20 -3 14 -7 -3 -4 1 6 9 11 9 17 19 13 22 -4 4
1 13 11 20 14 11 14 14 2 14 -10 1 -8 4 5 9 11 5 21 13 21 20 1 6 2 15 3 21 0
5 11 14 23 21 18 9 20 9 15 -4 -3 -9 1 -18 9 -21 8 -3 14 -12 14 -21 0 -8 5
-15 11 -15 5 0 7 -4 4 -10 -3 -5 0 -10 7 -10 9 0 9 -3 -2 -10 -13 -8 -12 -10
3 -10 9 0 17 -7 17 -16 0 -8 7 -22 16 -31 8 -9 12 -23 9 -31 -3 -9 -3 -13 1
-9 10 9 37 -30 29 -43 -3 -6 0 -10 8 -10 8 0 20 -15 28 -32 7 -18 23 -49 35
-69 13 -20 20 -40 17 -43 -4 -3 -1 -6 6 -6 8 0 11 -7 7 -15 -3 -9 0 -15 10
-15 9 0 14 -6 11 -12 -2 -7 5 -19 17 -26 20 -13 20 -13 1 -8 -19 6 -19 5 -1
-8 10 -9 15 -20 10 -27 -4 -8 -3 -10 4 -5 8 5 12 -1 12 -14 0 -12 5 -18 10
-15 6 3 10 -1 10 -9 0 -9 5 -16 11 -16 5 0 8 -4 4 -9 -3 -6 3 -14 12 -20 10
-6 12 -11 6 -11 -7 0 -13 -5 -13 -11 0 -5 5 -7 10 -4 6 3 10 1 10 -5 0 -6 5
-8 12 -4 6 4 8 3 4 -4 -3 -6 1 -17 9 -25 11 -12 12 -17 2 -20 -7 -3 -5 -6 5
-6 9 -1 20 -6 24 -13 4 -7 3 -8 -4 -4 -7 4 -12 3 -12 -3 0 -5 9 -13 21 -16 11
-4 18 -9 15 -12 -3 -3 10 -22 29 -42 19 -20 35 -40 35 -44 0 -5 5 -5 10 -2 6
3 10 -1 10 -10 0 -8 7 -18 15 -21 8 -4 12 -11 8 -17 -4 -6 0 -8 10 -4 12 4 15
1 12 -15 -3 -11 -2 -18 1 -15 9 9 50 -38 45 -52 -2 -9 0 -12 7 -7 6 3 13 2 17
-4 4 -6 11 -7 17 -4 8 5 9 1 5 -10 -4 -10 -1 -19 8 -22 8 -4 15 -13 15 -21 0
-8 4 -11 10 -8 6 3 10 1 10 -5 0 -6 14 -26 30 -43 55 -58 66 -72 79 -99 8 -15
19 -26 24 -25 6 1 19 -14 29 -33 11 -19 17 -27 14 -17 -3 10 -2 15 4 12 6 -3
10 -12 10 -20 0 -8 7 -18 16 -23 8 -5 17 -17 18 -28 2 -10 9 -18 16 -16 6 1
14 -7 17 -18 3 -11 9 -17 14 -14 5 3 9 -1 9 -8 0 -7 11 -22 25 -32 13 -10 22
-22 19 -27 -5 -9 10 -13 30 -10 5 1 4 -5 -4 -13 -10 -13 -10 -16 1 -17 8 -1
18 -1 23 0 5 1 6 -5 2 -14 -3 -9 -2 -13 4 -10 6 3 10 1 10 -5 0 -12 54 -70 66
-70 4 0 3 5 -4 12 -7 7 -12 20 -12 30 0 10 -7 18 -16 18 -8 0 -12 5 -9 11 4 5
-1 20 -12 31 -10 12 -12 18 -5 14 11 -7 11 -4 1 12 -7 12 -17 18 -23 15 -5 -4
-6 -1 -1 7 4 7 4 15 -1 19 -16 11 -45 72 -31 66 6 -4 4 0 -5 8 -10 8 -18 19
-18 25 0 6 -6 13 -12 15 -10 4 -9 6 1 6 10 1 7 7 -8 20 -16 14 -18 21 -9 24
10 4 10 6 1 6 -7 1 -13 8 -13 17 0 9 -5 12 -12 8 -8 -5 -9 -2 -5 9 3 9 0 22
-7 30 -7 7 -16 22 -20 34 -4 12 -13 27 -21 33 -8 7 -15 21 -15 32 0 10 -3 17
-7 15 -5 -3 -9 7 -10 21 0 15 -6 28 -12 30 -6 2 -11 10 -11 18 0 8 -5 14 -11
14 -5 0 -7 5 -4 10 3 6 2 10 -3 10 -6 0 -13 11 -16 25 -4 14 -11 25 -17 25 -8
0 -7 5 1 15 10 12 9 15 -6 15 -16 0 -17 2 -4 10 13 8 12 10 -2 10 -16 0 -20 6
-17 26 0 4 -4 10 -11 14 -6 4 -12 16 -13 27 0 13 -6 19 -14 16 -8 -3 -13 -2
-11 3 5 17 -21 74 -37 80 -12 5 -13 9 -4 20 11 13 2 19 -24 15 -4 0 -6 2 -6 6
1 8 0 12 -6 31 -2 4 -6 17 -10 30 -4 12 -11 22 -16 22 -5 0 -9 5 -9 11 0 5 5
7 12 3 7 -5 8 -3 4 5 -5 7 -15 10 -23 6 -13 -4 -14 -3 -3 10 8 10 9 15 1 15
-6 0 -11 7 -11 16 0 8 -4 12 -10 9 -5 -3 -7 0 -4 8 3 8 0 18 -5 22 -6 3 -8 11
-5 17 4 7 2 8 -4 4 -8 -4 -12 0 -12 12 0 10 -9 28 -19 39 -11 12 -17 24 -14
27 4 3 1 6 -5 6 -6 0 -9 7 -5 17 4 10 2 14 -4 10 -14 -9 -24 17 -17 41 4 12 3
13 -3 4 -11 -15 -47 53 -37 70 4 6 3 9 -2 6 -15 -10 -36 24 -37 59 0 7 -7 15
-14 17 -8 3 -11 11 -7 17 4 7 3 9 -4 5 -6 -3 -13 -2 -17 4 -3 5 0 10 7 10 9 1
7 5 -4 14 -10 7 -18 18 -18 24 0 6 -6 13 -12 15 -10 4 -10 6 1 6 8 1 5 9 -10
22 -13 11 -18 18 -11 14 19 -10 14 1 -13 31 -13 14 -22 30 -19 35 3 5 0 9 -5
9 -6 0 -11 6 -11 14 0 8 -6 17 -12 19 -10 4 -9 6 1 6 10 1 8 6 -6 19 -11 9
-23 26 -25 37 -2 11 -10 19 -17 17 -9 -2 -11 3 -8 13 4 8 2 15 -4 15 -6 0 -8
4 -4 9 3 5 1 13 -5 16 -6 4 -18 24 -27 46 -8 21 -20 39 -27 39 -6 0 -4 5 4 10
11 7 11 10 2 10 -7 0 -10 5 -7 10 4 6 1 9 -6 8 -7 -2 -13 4 -14 12 0 8 -6 14
-11 13 -10 -2 -12 4 -16 46 -1 11 -5 19 -8 18 -3 -1 -6 1 -7 6 -2 4 -12 16
-23 27 -12 12 -18 25 -15 30 3 5 -4 15 -15 23 -11 7 -17 17 -13 20 3 4 1 7 -6
7 -7 0 -9 4 -6 10 3 5 0 7 -9 4 -8 -3 -12 -12 -9 -20 3 -8 0 -14 -7 -14 -6 0
-8 -5 -5 -10 3 -6 0 -13 -9 -16 -8 -3 -12 -12 -9 -20 3 -8 0 -14 -6 -14 -6 0
-11 -9 -11 -21 0 -13 -4 -18 -12 -13 -7 5 -9 2 -5 -9 3 -9 -1 -18 -10 -21 -9
-4 -13 -14 -10 -26 3 -11 1 -18 -4 -14 -5 3 -9 0 -9 -6 0 -6 -5 -8 -12 -4 -9
5 -9 2 1 -9 9 -11 10 -17 2 -17 -6 0 -11 -7 -11 -16 0 -8 -4 -13 -9 -10 -5 3
-12 -1 -15 -10 -9 -24 -7 -31 4 -14 5 8 10 10 10 4 0 -6 -11 -19 -24 -29 -13
-10 -22 -24 -19 -30 2 -7 -3 -15 -11 -18 -10 -4 -13 -13 -9 -23 5 -13 2 -16
-9 -12 -11 5 -14 0 -12 -17 1 -13 -4 -26 -13 -29 -8 -3 -11 -10 -8 -16 3 -5 1
-10 -4 -10 -6 0 -10 -3 -9 -7 2 -14 -14 -43 -22 -38 -4 3 -7 -3 -6 -13 0 -10
-5 -16 -14 -14 -12 3 -12 1 -3 -9 10 -10 9 -15 -5 -26 -12 -10 -12 -12 -2 -8
8 4 6 -1 -4 -9 -11 -9 -16 -16 -10 -16 5 0 5 -3 -1 -8 -18 -13 -36 -53 -29
-65 4 -7 4 -9 -1 -5 -4 4 -14 1 -21 -7 -17 -17 -18 -29 -1 -19 15 9 -12 -26
-32 -42 -8 -6 -11 -16 -7 -22 4 -7 3 -12 -2 -12 -5 0 -12 -9 -15 -20 -3 -13
-1 -18 6 -14 7 3 1 -3 -12 -14 -18 -15 -21 -21 -10 -25 9 -3 9 -6 2 -6 -16 -1
-44 40 -36 52 3 6 1 7 -4 4 -13 -8 -26 20 -16 36 3 7 3 9 -2 5 -11 -10 -35 17
-35 41 0 12 -4 21 -10 21 -5 0 -10 9 -10 21 0 11 -4 17 -10 14 -5 -3 -10 3
-10 14 0 12 -4 21 -10 21 -5 0 -10 5 -10 11 0 5 6 7 13 4 6 -4 2 3 -11 14 -13
11 -24 29 -25 40 -1 11 -7 23 -15 26 -8 3 -11 12 -8 21 3 8 2 12 -4 9 -6 -3
-10 3 -10 15 0 12 -3 19 -8 16 -4 -2 -12 7 -19 20 -8 18 -8 22 0 17 7 -4 6 1
-2 10 -7 9 -18 14 -24 10 -6 -3 -7 -1 -3 5 4 6 -2 29 -13 50 -11 22 -17 43
-13 47 4 5 1 4 -7 0 -11 -6 -13 -4 -8 8 4 10 2 16 -6 14 -7 -1 -12 6 -12 15 0
9 -4 20 -9 25 -5 5 -6 2 -1 -6 5 -9 4 -12 -3 -7 -6 4 -9 13 -6 20 3 7 -2 16
-11 20 -9 3 -14 10 -10 15 3 5 1 12 -5 16 -6 4 -8 11 -5 16 4 5 2 9 -3 9 -10
0 -25 38 -23 54 1 5 -6 5 -16 2 -14 -6 -15 -4 -6 5 9 9 8 15 -3 26 -8 8 -12
18 -9 23 3 4 -3 14 -13 21 -16 13 -16 13 -2 -6 14 -18 13 -19 -1 -8 -9 7 -15
23 -14 35 2 26 -15 49 -30 40 -5 -3 -4 2 4 11 12 15 11 17 -3 17 -9 0 -16 8
-16 20 0 11 -5 20 -11 20 -5 0 -7 5 -4 10 3 6 1 10 -6 10 -7 0 -9 3 -6 6 4 4
-3 15 -14 25 -12 11 -19 25 -15 34 3 10 -1 15 -12 16 -11 0 -12 2 -4 6 9 3 7
10 -9 24 -12 10 -17 19 -10 19 9 0 8 4 -1 14 -7 8 -16 12 -20 10 -3 -2 -4 5
-1 16 4 17 2 19 -13 13 -17 -6 -17 -5 -5 10 11 14 11 18 -3 23 -11 4 -15 13
-10 26 4 13 2 18 -4 14 -5 -3 -16 2 -23 11 -12 14 -12 16 1 9 8 -4 4 2 -9 13
-13 12 -18 21 -11 21 7 0 6 6 -4 16 -9 8 -14 20 -11 25 4 5 -1 9 -9 9 -9 0
-13 7 -11 20 2 11 -1 19 -8 17 -6 -1 -12 3 -12 8 -2 25 -19 59 -37 77 -11 11
-17 26 -14 33 3 9 0 12 -10 8 -9 -3 -14 1 -14 12 0 19 -23 45 -40 45 -8 0 -10
-8 -7 -21z m101 -115 c3 -8 2 -12 -4 -9 -6 3 -10 10 -10 16 0 14 7 11 14 -7z
m1711 -1914 c10 -11 16 -20 13 -20 -3 0 -13 9 -23 20 -10 11 -16 20 -13 20 3
0 13 -9 23 -20z"/>
<path d="M4990 5191 c0 -5 -7 -12 -16 -15 -8 -3 -12 -2 -9 4 3 6 -1 7 -9 4 -9
-3 -14 -10 -11 -14 8 -12 -23 -33 -36 -24 -8 4 -9 3 -5 -5 4 -6 3 -18 -3 -25
-7 -8 -11 -18 -10 -22 4 -22 -2 -35 -13 -28 -7 5 -8 3 -2 -7 12 -20 11 -32 -3
-47 -9 -10 -10 -19 -3 -33 6 -11 7 -19 1 -19 -5 0 -7 -10 -3 -22 3 -14 2 -19
-6 -14 -7 4 -12 2 -12 -3 0 -6 5 -11 10 -11 7 0 7 -6 2 -17 -5 -10 -8 -33 -7
-50 0 -18 -3 -33 -7 -33 -4 0 -4 -7 -1 -17 5 -12 3 -14 -8 -8 -11 7 -12 6 -2
-6 10 -12 10 -18 0 -29 -10 -10 -9 -11 3 -5 12 7 13 6 3 -6 -6 -8 -10 -33 -9
-55 2 -33 -1 -41 -12 -36 -11 4 -12 1 -4 -15 8 -14 8 -23 0 -31 -7 -7 -8 -12
-4 -12 5 0 2 -8 -5 -17 -10 -11 -10 -14 -1 -9 6 4 12 2 12 -4 0 -6 -7 -13 -15
-16 -8 -4 -12 -10 -9 -15 3 -5 11 -6 17 -2 8 5 8 2 0 -9 -7 -8 -10 -18 -6 -21
3 -4 1 -7 -7 -7 -10 0 -10 -3 -1 -14 8 -9 8 -16 2 -20 -5 -4 -8 -15 -6 -26 2
-11 -1 -20 -7 -20 -6 0 -5 -7 3 -17 8 -9 9 -14 3 -10 -8 5 -12 -8 -13 -41 -1
-26 -1 -55 -2 -65 0 -9 -3 -16 -7 -13 -4 2 -7 -17 -6 -42 0 -26 -5 -57 -12
-68 -9 -16 -10 -24 -1 -33 7 -7 7 -11 1 -11 -6 0 -10 -10 -9 -22 1 -13 -3 -29
-9 -37 -9 -12 -8 -13 3 -7 9 6 12 5 9 -5 -3 -8 -11 -13 -18 -11 -11 3 -11 0 0
-12 8 -11 9 -16 1 -16 -6 0 -11 -5 -11 -11 0 -5 5 -7 12 -3 7 5 8 3 3 -5 -4
-7 -9 -33 -10 -56 -2 -24 -6 -49 -9 -54 -4 -6 -7 -27 -8 -48 -1 -21 -6 -41
-12 -45 -8 -5 -7 -8 2 -8 6 0 12 -5 12 -11 0 -5 -4 -8 -8 -5 -5 3 -9 -1 -9 -9
0 -8 5 -15 11 -15 6 0 4 -5 -4 -10 -13 -9 -13 -11 0 -20 13 -8 13 -10 -1 -10
-14 0 -15 -7 -9 -40 6 -35 6 -39 -8 -28 -13 11 -14 10 -3 -9 9 -17 9 -23 0
-23 -8 0 -7 -5 2 -17 11 -13 11 -15 1 -9 -10 6 -13 2 -10 -15 2 -13 -4 -30
-12 -37 -13 -10 -12 -11 5 -5 11 3 17 3 13 -1 -11 -13 -42 -14 -57 -2 -11 8
-13 8 -8 -1 6 -9 -4 -12 -38 -10 -25 1 -45 5 -45 9 0 5 -7 8 -15 8 -9 0 -12 6
-9 15 4 8 1 15 -5 15 -9 0 -9 5 -1 20 8 15 8 20 -2 18 -6 -2 -13 4 -14 12 -2
26 -16 60 -24 60 -4 0 -7 15 -6 34 1 23 -2 32 -9 26 -7 -6 -11 -1 -12 13 -3
56 -8 67 -23 63 -12 -4 -12 -3 1 6 15 10 15 13 -5 31 -11 10 -15 16 -8 12 6
-3 12 -1 12 4 0 6 -4 11 -10 11 -5 0 -10 9 -10 20 0 11 -6 20 -12 20 -9 0 -8
4 2 10 12 7 12 10 1 10 -8 0 -11 6 -7 16 5 12 2 15 -11 10 -15 -5 -15 -4 1 9
18 14 19 15 2 15 -12 0 -16 5 -12 15 7 20 -4 46 -16 39 -6 -4 -8 2 -3 15 4 13
2 21 -5 21 -6 0 -8 5 -5 11 4 5 -1 26 -10 45 -9 19 -13 39 -9 46 5 7 3 8 -6 3
-10 -6 -12 -3 -8 13 4 12 2 20 -2 17 -5 -3 -11 -1 -15 5 -3 5 0 10 7 10 11 0
11 2 0 9 -7 4 -15 17 -16 27 -2 10 -9 18 -16 16 -6 -1 -9 2 -5 8 3 5 0 10 -7
10 -9 0 -9 3 2 10 13 8 13 10 -1 10 -9 0 -24 10 -33 23 -9 12 -14 15 -10 7 7
-13 5 -13 -9 -1 -9 7 -26 11 -37 8 -11 -3 -18 -1 -14 4 7 12 4 11 -34 -2 -19
-6 -29 -15 -25 -22 4 -7 0 -8 -11 -4 -9 4 -14 3 -11 -2 3 -5 -4 -13 -15 -16
-18 -6 -19 -9 -8 -23 10 -12 10 -14 1 -8 -8 4 -13 1 -13 -8 0 -9 -5 -16 -11
-16 -5 0 -7 -4 -4 -10 3 -5 0 -10 -7 -10 -9 0 -9 -3 2 -10 11 -7 11 -10 2 -10
-7 0 -12 -8 -10 -17 2 -10 -2 -17 -9 -16 -9 2 -10 -4 -3 -23 9 -21 8 -25 -4
-21 -11 4 -13 0 -11 -15 3 -12 0 -27 -6 -35 -7 -7 -8 -13 -3 -13 5 0 2 -5 -6
-10 -13 -9 -13 -10 0 -10 12 0 12 -2 2 -9 -13 -8 -20 -28 -21 -64 -1 -11 -6
-15 -13 -11 -6 4 -8 3 -4 -4 3 -6 2 -13 -2 -16 -5 -3 -7 -17 -4 -31 2 -14 0
-25 -6 -25 -6 0 -9 -9 -7 -20 2 -11 0 -20 -6 -20 -5 0 -9 -7 -9 -16 0 -9 5
-12 12 -8 7 5 8 3 4 -5 -5 -7 -14 -10 -21 -7 -10 4 -11 -2 -5 -24 6 -22 5 -28
-5 -24 -9 4 -13 -2 -11 -21 3 -20 0 -25 -12 -20 -12 4 -12 3 -3 -8 9 -11 8
-17 -4 -27 -12 -10 -13 -16 -4 -26 9 -11 8 -14 -1 -14 -7 0 -10 -7 -6 -15 3
-8 0 -15 -7 -15 -8 0 -6 -4 3 -10 13 -8 13 -10 -2 -10 -12 0 -15 -6 -10 -22 4
-16 2 -19 -8 -13 -9 5 -11 4 -6 -3 13 -21 -13 -52 -42 -50 -15 1 -30 7 -34 13
-5 6 -8 5 -8 -3 0 -9 -11 -11 -41 -7 -32 5 -39 3 -33 -7 6 -10 5 -10 -7 -1 -8
6 -29 10 -46 8 -20 -1 -33 2 -33 9 0 6 -5 4 -10 -4 -9 -13 -11 -13 -20 0 -5 8
-10 10 -10 4 0 -13 -134 -14 -146 -1 -4 4 -13 2 -21 -4 -10 -9 -17 -8 -30 2
-11 10 -14 10 -9 2 5 -9 0 -13 -13 -13 -12 0 -21 6 -21 13 0 8 -3 8 -8 1 -9
-13 -185 -13 -194 1 -5 7 -8 6 -8 -1 0 -12 -157 -14 -176 -2 -6 4 -14 4 -18 0
-12 -12 -77 -12 -70 0 5 7 2 8 -7 2 -19 -12 -178 -14 -185 -2 -3 5 -11 4 -19
-2 -15 -13 -46 -10 -57 5 -5 6 -8 6 -8 -2 0 -6 -13 -11 -30 -11 -16 1 -30 5
-30 10 0 5 -7 2 -16 -6 -8 -9 -21 -13 -27 -9 -7 4 -21 8 -32 8 -11 0 -26 4
-32 8 -9 6 -11 3 -6 -9 4 -12 3 -15 -6 -10 -6 4 -19 2 -28 -6 -14 -11 -16 -11
-9 2 4 8 0 6 -9 -5 -9 -11 -21 -19 -26 -17 -5 1 -9 -3 -9 -9 0 -7 -8 -18 -17
-26 -10 -8 -12 -11 -4 -7 10 5 12 3 5 -7 -14 -22 -16 -60 -4 -74 6 -7 10 -17
9 -21 -4 -16 13 -44 26 -44 7 0 15 -5 17 -10 2 -6 13 -12 25 -12 13 -2 19 -7
15 -16 -4 -11 0 -12 14 -6 23 11 55 11 72 1 7 -5 12 -3 12 5 0 9 3 9 10 -2 6
-10 10 -11 10 -2 0 6 5 12 11 12 5 0 8 -4 5 -8 -2 -4 4 -8 14 -8 10 0 16 4 14
8 -3 4 -1 8 5 8 5 0 12 -6 14 -12 4 -9 6 -10 6 -1 1 8 10 9 31 3 17 -5 30 -6
30 -2 0 11 144 8 152 -3 5 -6 8 -4 8 5 0 13 1 13 10 0 6 -9 10 -11 10 -3 0 7
6 10 14 7 22 -8 105 -10 99 -1 -7 12 12 8 25 -5 9 -9 12 -9 12 -1 0 14 52 12
62 -2 5 -6 8 -5 8 3 0 10 5 10 20 2 14 -7 20 -7 20 0 0 12 22 9 32 -5 5 -7 8
-7 8 0 0 6 18 11 41 12 22 2 38 -1 35 -5 -2 -4 4 -8 15 -8 10 0 19 3 19 7 0 8
45 4 59 -6 6 -3 11 -1 11 5 0 6 4 8 10 5 18 -11 51 -14 45 -4 -4 5 -2 9 4 9 5
0 12 -6 14 -12 4 -10 6 -10 6 0 1 6 6 12 12 12 5 0 8 -4 5 -8 -3 -4 10 -7 27
-6 55 5 91 5 124 1 17 -1 30 1 27 5 -7 11 3 10 27 -2 10 -6 19 -7 19 -2 0 5
17 6 40 2 22 -4 37 -3 34 1 -8 13 10 11 24 -3 9 -9 12 -9 12 1 0 11 3 11 15 1
8 -7 15 -9 15 -4 0 10 73 10 89 -1 6 -3 11 1 11 10 0 15 1 15 16 1 8 -9 19
-14 24 -11 4 3 32 7 61 9 30 3 55 10 57 15 2 6 11 11 20 12 10 0 12 3 5 5 -13
6 -6 34 9 34 5 0 6 -5 2 -12 -5 -7 -3 -8 5 -4 7 5 10 10 7 13 -2 3 2 23 10 45
7 22 11 44 8 49 -3 5 0 9 6 9 6 0 8 5 5 10 -3 6 0 10 7 10 10 0 9 3 -2 10 -12
8 -12 10 3 16 15 5 15 9 5 22 -10 12 -10 14 0 8 11 -7 17 10 13 42 -1 6 3 12
9 12 6 0 8 5 5 10 -3 6 0 10 7 10 11 0 10 2 0 9 -11 7 -11 9 1 14 7 3 13 16
12 29 -1 12 5 29 14 36 9 8 10 11 4 7 -7 -3 -13 -1 -13 4 0 6 5 11 11 11 5 0
7 5 4 10 -3 6 0 10 7 10 10 0 9 3 -2 10 -12 8 -12 10 4 16 14 5 15 9 4 15 -11
7 -11 9 1 9 7 0 11 6 8 15 -4 8 -1 17 5 21 7 4 8 3 4 -4 -4 -7 -2 -12 4 -12 6
0 9 -4 6 -9 -3 -5 0 -11 8 -14 9 -3 12 -15 9 -31 -3 -15 -1 -26 6 -26 5 0 8
-7 4 -15 -3 -9 3 -23 13 -31 11 -9 13 -13 7 -9 -7 3 -13 1 -13 -4 0 -6 5 -11
10 -11 6 0 10 -11 10 -25 0 -14 5 -25 11 -25 6 0 9 -9 6 -20 -3 -11 -1 -20 5
-20 5 0 6 -4 3 -10 -3 -5 0 -10 7 -10 9 0 9 -3 -2 -10 -10 -6 -11 -10 -2 -10
6 0 12 -9 12 -20 0 -11 4 -20 8 -20 5 0 8 -13 7 -29 -1 -17 3 -29 9 -28 6 1
11 -10 10 -25 0 -15 4 -24 10 -21 5 4 7 -1 3 -10 -3 -10 -2 -17 2 -17 5 0 12
-7 15 -16 3 -8 2 -12 -4 -9 -15 9 -12 0 9 -23 13 -16 27 -21 49 -18 17 2 34 1
36 -2 8 -8 95 -8 89 1 -2 4 1 7 6 7 6 0 11 -4 11 -9 0 -4 11 -7 24 -6 21 3 24
-1 22 -30 -1 -24 2 -31 10 -24 8 6 10 2 7 -15 -3 -13 0 -27 6 -30 5 -4 8 -13
4 -21 -3 -9 1 -15 8 -15 11 0 11 -3 -1 -10 -8 -5 -10 -10 -3 -10 6 0 10 -8 9
-17 -2 -10 2 -21 8 -25 7 -5 7 -8 -2 -8 -10 0 -10 -4 2 -16 17 -16 22 -39 7
-30 -5 4 -7 -3 -4 -14 3 -11 9 -23 14 -26 5 -3 9 -14 9 -25 0 -11 7 -19 18
-19 14 0 15 -2 2 -10 -12 -8 -10 -10 8 -10 13 0 20 -4 17 -10 -3 -5 3 -10 15
-10 14 0 19 -4 14 -12 -6 -10 -4 -10 8 0 13 10 17 10 21 0 4 -10 8 -10 16 2
10 13 11 13 11 0 0 -12 2 -13 9 -1 5 7 14 10 20 7 6 -4 11 0 11 11 0 11 3 14
8 7 5 -9 11 -8 20 2 7 8 9 14 5 14 -4 0 -2 4 5 9 7 4 14 17 15 29 1 17 4 19
16 9 12 -10 13 -9 2 11 -9 17 -9 22 1 22 9 0 9 3 -2 10 -8 5 -10 10 -3 10 6 0
9 9 5 22 -4 16 -2 19 9 13 12 -8 12 -6 0 8 -11 14 -11 17 0 17 11 0 11 2 -1
10 -9 6 -10 10 -3 10 7 0 10 13 8 35 -2 19 2 35 7 35 6 0 4 8 -3 17 -12 14
-12 16 0 8 11 -6 13 -4 8 7 -3 9 0 21 6 28 9 10 9 11 0 6 -16 -9 -17 10 -2 19
6 4 8 26 6 51 -3 37 -1 44 12 39 12 -5 11 -2 -3 14 -12 13 -14 21 -6 26 6 4 9
14 6 22 -4 8 -2 11 5 7 8 -4 9 1 4 16 -6 17 -4 21 6 15 8 -5 5 2 -6 15 -11 13
-15 20 -9 17 16 -9 24 26 11 48 -7 13 -6 16 2 11 6 -4 12 -4 12 1 6 36 5 53
-4 53 -6 0 -6 4 0 13 6 6 10 34 8 60 -1 26 2 50 7 53 5 3 6 10 3 15 -4 5 -2 9
4 9 10 0 9 25 -2 36 -4 4 -2 13 4 21 6 7 8 13 3 13 -5 0 -2 5 6 10 9 6 11 10
3 10 -7 0 -10 7 -7 15 4 8 11 12 18 8 6 -4 6 0 -2 9 -7 9 -9 19 -5 21 11 7 9
48 -2 67 -6 9 -4 11 5 5 10 -6 12 -4 7 8 -4 10 -2 17 5 17 7 0 7 4 -1 14 -7 9
-8 17 -2 20 5 3 8 17 6 31 -1 14 2 28 7 31 6 4 5 10 -3 15 -11 7 -9 9 6 9 17
0 18 2 5 11 -11 8 -12 12 -2 16 6 2 12 9 12 14 0 6 -4 7 -10 4 -5 -3 -10 1
-10 9 0 9 6 15 13 13 6 -1 11 6 11 15 -1 10 2 15 8 12 5 -3 6 -15 3 -25 -4
-11 -2 -26 5 -34 8 -9 8 -15 0 -20 -8 -5 -8 -11 1 -21 9 -11 8 -14 -2 -14 -12
0 -12 -2 0 -9 8 -5 11 -16 8 -25 -4 -9 -3 -16 1 -16 9 0 9 -62 -1 -77 -4 -7 0
-16 10 -22 20 -11 21 -20 1 -32 -10 -7 -10 -9 0 -9 6 0 12 -9 12 -19 0 -11 4
-23 10 -26 6 -4 5 -13 -2 -25 -11 -16 -9 -22 7 -35 12 -9 14 -13 5 -10 -11 4
-16 -1 -16 -14 0 -14 4 -17 12 -10 9 8 11 5 7 -10 -3 -12 1 -29 8 -38 8 -10 9
-14 2 -10 -8 5 -11 -2 -11 -22 1 -17 5 -28 10 -25 12 8 10 -10 -4 -24 -9 -9
-9 -12 1 -12 11 0 11 -3 0 -17 -8 -9 -9 -14 -3 -10 8 4 13 -4 16 -23 3 -16 0
-32 -6 -34 -7 -3 -6 -5 1 -5 7 -1 10 -8 7 -16 -4 -9 0 -15 7 -15 11 0 11 -3
-1 -11 -12 -8 -12 -12 -2 -16 10 -4 10 -8 0 -21 -10 -12 -10 -14 0 -8 6 4 12
2 12 -3 0 -6 -6 -11 -12 -11 -10 0 -9 -3 1 -9 9 -6 12 -20 9 -40 -3 -23 -1
-31 11 -31 11 0 10 -3 -5 -15 -10 -8 -14 -15 -7 -15 7 0 10 -7 6 -16 -3 -9 0
-20 8 -25 12 -8 12 -10 0 -18 -8 -5 -9 -11 -3 -15 6 -4 9 -15 7 -26 -2 -11 1
-20 7 -20 7 0 6 -5 -1 -14 -7 -9 -8 -17 -2 -20 5 -3 7 -15 4 -25 -3 -10 0 -22
6 -25 8 -5 8 -13 0 -28 -8 -16 -8 -19 1 -13 8 5 11 3 8 -6 -3 -8 -1 -22 4 -31
5 -10 5 -18 0 -18 -4 0 -8 -8 -8 -19 0 -12 5 -17 15 -13 10 4 13 1 8 -11 -3
-9 -2 -19 4 -22 5 -4 7 -10 4 -15 -3 -5 0 -12 6 -16 8 -4 9 -3 5 4 -4 7 -2 12
3 12 6 0 11 -9 11 -20 0 -14 7 -20 24 -20 13 0 26 -6 29 -12 3 -10 8 -9 22 2
11 9 16 10 11 3 -5 -9 0 -13 14 -13 13 0 19 4 14 11 -4 7 -1 10 7 7 8 -3 20 2
27 11 8 9 11 10 7 4 -4 -8 -1 -11 9 -7 9 3 15 9 14 12 -2 22 3 32 15 26 7 -5
7 -1 -3 12 -8 10 -10 16 -6 12 13 -11 37 12 29 26 -12 18 -12 37 0 29 6 -4 8
0 4 10 -4 10 -1 17 6 17 8 0 6 4 -3 10 -8 5 -10 10 -3 10 6 0 10 13 9 29 -1
17 2 28 6 25 4 -3 8 2 8 11 0 9 -4 14 -10 10 -5 -3 -3 7 5 22 11 21 11 29 2
35 -8 5 -6 9 6 14 9 3 17 10 17 16 0 5 -6 6 -12 2 -9 -6 -9 -3 1 9 7 9 11 23
8 31 -5 12 -1 13 19 6 32 -13 43 -12 24 0 -11 7 -4 9 24 6 21 -3 40 -7 43 -9
2 -3 17 -2 33 3 18 5 32 4 39 -3 8 -8 11 -7 11 2 0 10 4 10 13 3 16 -13 57 3
57 23 0 10 5 13 13 9 7 -5 7 -2 -2 10 -11 13 -11 16 -2 14 7 -2 15 7 17 20 2
13 -1 22 -9 22 -8 0 -7 3 3 9 8 6 19 7 25 3 5 -3 4 2 -4 11 -11 14 -11 18 4
23 11 5 13 9 5 14 -8 5 -7 12 5 24 12 12 13 16 3 16 -8 1 -7 5 5 14 12 9 14
16 7 21 -5 3 -8 11 -4 16 3 5 10 6 16 3 6 -4 5 3 -2 16 -9 18 -9 21 0 15 10
-6 12 -1 8 18 -3 16 0 31 9 39 8 6 12 17 9 24 -3 7 3 15 12 19 14 5 14 7 2 15
-10 7 -11 10 -2 10 6 0 12 9 12 21 0 11 4 18 9 15 11 -7 9 13 -3 33 -7 10 -6
12 4 6 10 -6 12 -4 7 9 -4 10 -3 15 3 11 6 -3 10 -1 10 6 0 8 4 8 15 -1 18
-15 20 -34 3 -24 -10 6 -10 4 0 -8 7 -9 15 -29 18 -45 3 -15 13 -37 22 -47 10
-12 11 -16 3 -11 -9 5 -12 3 -9 -6 3 -8 10 -13 16 -12 5 1 8 -7 5 -17 -3 -11
1 -28 8 -37 12 -14 12 -16 -1 -8 -12 6 -13 5 -2 -6 6 -7 12 -21 12 -31 0 -10
6 -18 13 -18 8 0 7 -4 -3 -10 -10 -6 -11 -10 -2 -10 6 0 11 -3 11 -7 -3 -18 2
-34 9 -30 4 3 8 -9 9 -26 1 -17 8 -34 15 -39 10 -6 10 -8 -2 -8 -9 0 -11 -3
-5 -8 10 -7 17 -27 18 -49 0 -7 5 -13 10 -13 5 0 7 -9 4 -20 -3 -11 -1 -18 3
-15 5 3 11 1 15 -5 4 -6 12 -7 23 -1 9 5 26 5 40 0 14 -6 21 -5 17 1 -6 10 47
6 66 -6 7 -4 10 -3 6 2 -3 5 39 9 98 9 57 0 101 -3 98 -7 -2 -5 1 -8 6 -8 6 0
11 5 11 10 0 6 5 10 11 10 5 0 7 -4 4 -10 -4 -7 3 -7 19 0 18 6 26 6 26 -1 0
-6 5 -7 11 -3 17 10 81 11 107 2 14 -5 21 -4 17 2 -6 10 47 6 66 -6 8 -4 9 -3
5 4 -4 7 -3 12 3 12 5 0 13 -5 16 -10 5 -7 11 -8 19 -1 7 6 17 6 26 1 8 -5 21
-5 29 -1 9 4 30 6 46 4 17 -2 37 -3 45 -3 8 0 25 0 38 0 16 0 21 4 16 13 -4 6
2 4 13 -6 14 -12 23 -15 28 -8 4 8 12 8 27 0 15 -8 19 -8 13 0 -4 8 2 10 20 7
15 -3 30 -7 32 -10 3 -3 20 2 37 11 27 14 29 14 18 1 -11 -13 -8 -15 20 -12
17 2 34 6 36 9 3 3 11 0 19 -6 10 -9 13 -8 13 1 0 9 4 9 13 2 8 -7 18 -7 27
-2 9 5 19 5 27 -2 10 -8 13 -7 13 3 0 11 2 11 10 -1 5 -8 10 -10 10 -4 0 14
32 13 42 -1 5 -7 8 -6 8 0 0 6 9 11 20 12 11 1 18 -1 16 -5 -3 -4 4 -8 15 -8
10 0 19 3 19 7 0 10 34 5 42 -6 5 -6 8 -4 8 5 0 13 1 13 10 0 9 -13 10 -13 10
0 1 11 4 10 15 -4 15 -20 15 -20 15 0 0 16 2 17 10 4 8 -12 10 -12 10 -1 0 11
3 11 17 0 9 -8 14 -9 11 -4 -8 14 44 13 54 0 5 -6 8 -6 8 2 0 6 9 9 22 5 16
-4 19 -2 13 9 -8 12 -6 12 9 0 15 -13 20 -12 40 12 13 15 26 24 30 20 3 -3 6
1 6 9 0 9 6 19 13 21 8 4 8 6 -2 6 -11 1 -10 5 5 17 10 8 12 12 4 8 -12 -7
-13 -5 -3 8 7 8 9 18 5 22 -4 4 -7 15 -7 24 0 32 -26 77 -50 89 -19 8 -24 8
-19 0 3 -7 -2 -3 -11 8 -13 15 -19 16 -22 7 -4 -10 -9 -8 -20 5 -8 10 -12 13
-9 7 4 -8 -16 -11 -64 -11 -48 0 -67 3 -63 11 4 6 -1 5 -10 -3 -9 -7 -17 -10
-17 -6 0 4 -6 2 -14 -4 -10 -8 -16 -9 -21 -1 -3 6 -11 8 -16 5 -5 -4 -9 0 -9
7 0 9 -3 9 -10 -2 -5 -8 -10 -11 -10 -6 0 5 -8 2 -17 -5 -9 -8 -14 -9 -10 -3
4 7 0 15 -9 18 -9 3 -12 2 -9 -5 9 -13 -75 -9 -94 5 -11 8 -13 8 -7 -2 6 -10
-6 -11 -54 -8 -35 3 -58 1 -55 -4 3 -5 -6 -5 -22 -1 -16 4 -49 7 -75 6 -29 -1
-48 2 -48 9 0 6 -5 4 -10 -4 -9 -13 -11 -13 -20 0 -6 10 -10 11 -10 3 0 -7 -9
-13 -20 -13 -11 0 -20 6 -20 13 0 8 -3 8 -9 -2 -8 -13 -12 -13 -27 0 -10 8
-15 9 -11 3 4 -8 -17 -11 -73 -10 -46 1 -80 5 -80 11 0 6 -4 4 -9 -4 -8 -13
-12 -13 -27 0 -10 8 -15 9 -11 3 9 -15 -145 -14 -155 1 -5 6 -8 5 -8 -2 0 -7
-7 -13 -16 -13 -8 0 -12 5 -9 11 4 6 -3 5 -14 -3 -18 -11 -23 -11 -30 1 -7 11
-9 11 -13 0 -4 -12 -8 -11 -23 1 -11 8 -16 9 -11 3 5 -9 -4 -12 -34 -10 -22 1
-40 7 -40 12 0 6 -5 3 -10 -5 -8 -12 -13 -13 -29 -3 -15 9 -22 10 -27 2 -4 -8
-10 -6 -16 5 -5 9 -6 21 -2 28 4 6 3 8 -3 5 -6 -4 -13 0 -17 8 -3 8 0 15 7 15
7 0 4 5 -6 11 -15 9 -16 13 -5 27 11 13 11 15 -3 10 -12 -5 -15 0 -14 23 1 16
-2 29 -7 29 -4 0 -8 9 -8 20 0 11 -6 20 -12 20 -9 0 -8 4 2 10 10 6 11 10 2
10 -6 0 -11 6 -10 13 2 6 -2 11 -8 10 -6 -1 -11 4 -11 12 0 8 4 12 8 9 5 -2 3
9 -2 26 -6 16 -16 30 -22 30 -7 0 -5 5 3 10 13 9 13 10 0 10 -12 0 -12 2 -2 9
11 6 10 10 -4 15 -16 6 -16 8 -4 16 12 8 12 10 -4 10 -11 0 -16 3 -13 6 3 4 2
16 -4 27 -7 12 -7 17 -1 13 6 -4 8 2 5 14 -3 11 -9 17 -14 14 -5 -3 -6 2 -3
10 4 9 1 16 -6 16 -9 0 -9 4 1 17 12 14 12 16 0 8 -11 -6 -13 -3 -9 13 5 16 2
22 -10 22 -15 0 -15 2 -2 10 8 5 10 10 3 10 -6 0 -10 8 -9 18 2 9 -1 20 -5 23
-5 3 -10 17 -11 32 -1 15 -5 27 -9 27 -4 0 -9 9 -12 20 -3 11 -1 18 3 15 15
-9 -23 59 -42 77 -14 12 -16 17 -6 21 7 3 1 6 -14 6 -15 1 -30 6 -34 13 -5 7
-3 8 6 3 8 -5 11 -4 7 2 -4 7 -20 8 -42 3 -19 -4 -33 -4 -30 0 3 5 -3 8 -14 7
-11 0 -19 -6 -18 -12 1 -5 -6 -9 -15 -9 -10 1 -15 -3 -11 -9 4 -6 0 -8 -11 -4
-9 4 -15 3 -11 -2 3 -5 -2 -17 -11 -25 -8 -9 -12 -16 -8 -16 4 0 0 -6 -11 -13
-10 -8 -15 -18 -12 -24 3 -5 0 -21 -8 -36 -10 -20 -11 -27 -2 -27 8 0 7 -3 -2
-9 -7 -5 -11 -13 -7 -19 3 -5 -1 -12 -9 -15 -8 -4 -12 -15 -10 -26 2 -11 -3
-22 -13 -26 -14 -5 -14 -7 -2 -15 10 -7 11 -10 3 -10 -7 0 -13 -9 -13 -20 0
-11 -6 -20 -12 -20 -9 0 -8 -4 2 -10 11 -7 11 -10 2 -10 -7 0 -11 -4 -8 -8 3
-5 -1 -20 -9 -35 -7 -14 -11 -28 -7 -31 3 -3 0 -6 -6 -6 -6 0 -9 -6 -6 -13 3
-8 -2 -19 -10 -26 -8 -7 -12 -19 -9 -27 3 -8 1 -14 -4 -14 -6 0 -9 -14 -8 -30
1 -19 -4 -34 -13 -39 -9 -5 -12 -15 -9 -25 4 -9 2 -16 -3 -16 -5 0 -7 -9 -5
-20 2 -11 -1 -23 -7 -26 -7 -5 -8 -2 -3 6 5 9 4 11 -3 6 -8 -5 -8 -15 -2 -32
7 -17 7 -23 0 -19 -6 3 -10 1 -10 -5 0 -6 -5 -8 -12 -4 -9 5 -9 3 1 -9 11 -14
11 -18 -4 -23 -13 -5 -14 -9 -3 -15 11 -8 11 -11 -1 -18 -8 -5 -11 -16 -8 -26
4 -9 3 -13 -2 -10 -6 3 -14 -2 -19 -11 -6 -11 -11 -13 -16 -5 -4 6 -13 11 -19
11 -8 0 -7 -3 2 -9 9 -6 -4 -9 -37 -8 -34 0 -49 4 -45 11 3 6 1 6 -7 -1 -20
-19 -42 -5 -29 19 8 15 8 19 0 14 -10 -7 -16 19 -12 52 1 8 -4 21 -11 30 -11
13 -11 14 1 7 11 -6 10 -2 -2 15 -12 18 -14 27 -5 37 7 9 7 13 -1 13 -9 0 -9
5 0 21 8 16 8 20 0 14 -8 -4 -10 2 -7 19 3 16 0 26 -7 26 -7 0 -6 4 3 10 11 7
12 10 2 10 -10 0 -13 12 -11 40 2 21 0 42 -3 46 -4 3 -4 13 -1 22 4 9 2 13 -4
9 -14 -9 -12 25 2 35 7 5 6 8 -1 8 -5 0 -11 21 -13 47 -1 26 -6 52 -11 58 -6
7 -5 16 2 23 9 9 9 12 1 12 -7 0 -11 12 -11 28 1 57 -2 83 -10 78 -5 -3 -9 1
-9 9 0 8 4 12 9 9 4 -3 8 0 8 5 0 6 -4 11 -10 11 -12 0 -9 22 5 32 6 5 6 8 -2
8 -6 0 -10 13 -9 30 1 19 -3 30 -11 30 -14 0 -17 12 -6 24 10 9 13 36 4 36 -4
0 -7 23 -6 50 0 35 -4 49 -12 46 -7 -3 -10 1 -6 9 3 8 9 12 14 9 14 -8 10 3
-7 20 -12 12 -12 16 -2 16 10 0 9 3 -2 10 -13 9 -13 11 0 20 12 8 12 10 1 10
-10 0 -12 9 -8 35 4 23 1 40 -8 49 -11 10 -11 16 -2 25 9 9 9 14 -2 21 -12 7
-12 11 -2 23 10 13 9 17 -6 26 -10 6 -13 11 -5 11 10 0 10 5 2 20 -6 11 -8 20
-4 20 3 0 1 6 -5 14 -9 10 -9 16 -1 21 7 4 8 11 2 18 -5 7 -8 22 -7 34 1 12
-2 20 -7 17 -4 -3 -8 4 -8 16 0 14 4 19 13 15 6 -4 3 1 -7 9 -11 9 -14 16 -7
16 7 0 9 5 6 10 -9 14 -17 59 -18 92 0 15 -4 25 -8 23 -9 -6 -21 24 -14 35 6
9 -51 56 -63 53 -4 0 -14 3 -23 8 -9 5 -20 4 -26 -2 -8 -8 -13 -7 -17 0 -9 13
-26 15 -26 2z m104 -19 c3 -5 -1 -9 -9 -9 -8 0 -12 4 -9 9 3 4 7 8 9 8 2 0 6
-4 9 -8z m37 -29 c13 -16 12 -17 -3 -4 -10 7 -18 15 -18 17 0 8 8 3 21 -13z"/>
<path d="M6995 4840 c3 -5 8 -10 11 -10 2 0 4 5 4 10 0 6 -5 10 -11 10 -5 0
-7 -4 -4 -10z"/>
<path d="M2720 4230 c-9 -6 -10 -10 -3 -10 6 0 15 5 18 10 8 12 4 12 -15 0z"/>
<path d="M2557 3885 c3 -8 9 -12 14 -9 12 7 11 11 -5 17 -10 4 -13 1 -9 -8z"/>
<path d="M4950 3659 c0 -5 5 -7 10 -4 6 3 10 8 10 11 0 2 -4 4 -10 4 -5 0 -10
-5 -10 -11z"/>
<path d="M7805 3380 c-3 -5 -1 -10 4 -10 6 0 11 5 11 10 0 6 -2 10 -4 10 -3 0
-8 -4 -11 -10z"/>
<path d="M4883 2466 c-12 -13 -19 -27 -15 -31 4 -3 -2 -3 -12 1 -13 5 -17 4
-12 -4 3 -6 2 -13 -4 -17 -6 -4 -8 -11 -5 -16 4 -5 2 -9 -4 -9 -5 0 -8 -11 -7
-25 2 -13 -1 -22 -5 -19 -5 3 -9 0 -9 -5 0 -6 6 -11 14 -11 10 0 12 -7 8 -22
-3 -14 -2 -19 6 -14 7 4 12 1 12 -9 0 -9 4 -13 10 -10 5 3 7 0 4 -9 -3 -9 3
-19 16 -26 11 -6 18 -15 15 -21 -4 -5 2 -9 11 -9 10 0 15 -3 11 -6 -8 -8 16
-33 26 -27 4 2 7 -3 7 -11 0 -9 6 -15 13 -13 6 1 11 -4 10 -10 -2 -7 4 -13 13
-13 9 0 12 -5 8 -12 -9 -14 64 -4 80 12 8 8 5 9 -9 5 l-20 -7 20 13 c11 7 26
19 33 26 7 7 18 13 23 13 6 0 8 4 5 8 -2 4 9 18 25 31 16 13 26 27 23 32 -3 5
0 9 5 9 6 0 11 7 11 16 0 8 5 12 10 9 9 -6 14 11 13 43 -1 10 2 10 13 2 11
-10 12 -6 4 18 -4 17 -6 33 -2 36 3 3 -1 6 -9 6 -11 0 -11 2 1 10 10 6 11 10
3 10 -7 0 -13 7 -13 15 0 9 -8 19 -17 22 -10 4 -27 15 -37 25 -14 13 -24 15
-37 7 -12 -6 -19 -6 -19 0 0 5 -12 5 -30 -2 -20 -8 -26 -15 -20 -22 13 -16
-31 -14 -48 3 -7 6 -20 12 -28 12 -8 0 -14 5 -14 11 0 6 -5 7 -12 2 -20 -12
-50 -14 -43 -3 11 18 -1 10 -22 -14z"/>
</g>
</svg>
